<?xml version="1.0" standalone="no"?><!DOCTYPE svg PUBLIC "-//W3C//DTD SVG 1.1//EN" "http://www.w3.org/Graphics/SVG/1.1/DTD/svg11.dtd"><svg t="1630456126781" class="icon" viewBox="0 0 1475 1024" version="1.1" xmlns="http://www.w3.org/2000/svg" p-id="9574" xmlns:xlink="http://www.w3.org/1999/xlink" width="46.09375" height="32"><defs><style type="text/css"></style></defs><path d="M321.834198 731.428571m-292.571429 0a292.571429 292.571429 0 1 0 585.142857 0 292.571429 292.571429 0 1 0-585.142857 0Z" fill="#D1DEFF" p-id="9575"></path><path d="M946.36167 371.340659m-225.054945 0a225.054945 225.054945 0 1 0 450.10989 0 225.054945 225.054945 0 1 0-450.10989 0Z" fill="#D1DEFF" p-id="9576"></path><path d="M695.988044 261.626374m-261.626374 0a261.626374 261.626374 0 1 0 523.252748 0 261.626374 261.626374 0 1 0-523.252748 0Z" fill="#D1DEFF" p-id="9577"></path><path d="M352.779253 385.406593m-171.604396 0a171.604396 171.604396 0 1 0 343.208791 0 171.604396 171.604396 0 1 0-343.208791 0Z" fill="#D1DEFF" p-id="9578"></path><path d="M1148.911121 697.67033m-326.32967 0a326.32967 326.32967 0 1 0 652.65934 0 326.32967 326.32967 0 1 0-652.65934 0Z" fill="#D1DEFF" p-id="9579"></path><path d="M316.207824 573.89011h832.703297v450.10989H316.207824z" fill="#D1DEFF" p-id="9580"></path><path d="M259.944088 810.197802h45.010989v11.252747h-45.010989z" fill="#FFFFFF" p-id="9581"></path><path d="M333.086945 810.197802h45.010989v11.252747h-45.010989z" fill="#FFFFFF" p-id="9582"></path><path d="M406.229802 810.197802h39.384616v11.252747h-39.384616z" fill="#FFFFFF" p-id="9583"></path><path d="M195.437714 793.999473l31.828396 31.828395-7.955692 7.955692-31.828396-31.828395z" fill="#FFFFFF" p-id="9584"></path><path d="M227.26611 801.955165l-31.828396 31.828395-7.955692-7.955692 31.828396-31.828395z" fill="#FFFFFF" p-id="9585"></path><path d="M1019.504527 714.549451h45.010989v11.252747h-45.010989z" fill="#FFFFFF" p-id="9586"></path><path d="M991.372659 714.549451h11.252748v11.252747h-11.252748z" fill="#FFFFFF" p-id="9587"></path><path d="M1092.647385 714.549451h45.010989v11.252747h-45.010989z" fill="#FFFFFF" p-id="9588"></path><path d="M1165.790242 714.549451h39.384615v11.252747h-39.384615z" fill="#FFFFFF" p-id="9589"></path><path d="M1234.55578 698.351121l31.828396 31.828395-7.955692 7.955693-31.828396-31.828396z" fill="#FFFFFF" p-id="9590"></path><path d="M1266.384176 706.306813l-31.828396 31.828396-7.955692-7.955693 31.828396-31.828395z" fill="#FFFFFF" p-id="9591"></path><path d="M861.966066 326.32967h45.010989v11.252748h-45.010989z" fill="#FFFFFF" p-id="9592"></path><path d="M833.834198 326.32967h11.252747v11.252748h-11.252747z" fill="#FFFFFF" p-id="9593"></path><path d="M935.108923 326.32967h45.010989v11.252748h-45.010989z" fill="#FFFFFF" p-id="9594"></path><path d="M1008.25178 326.32967h39.384616v11.252748h-39.384616z" fill="#FFFFFF" p-id="9595"></path><path d="M1077.017319 310.131341l31.828395 31.828395-7.955692 7.955693-31.828396-31.828396z" fill="#FFFFFF" p-id="9596"></path><path d="M1108.845714 318.087033l-31.828395 31.828396-7.955693-7.955693 31.828396-31.828395z" fill="#FFFFFF" p-id="9597"></path><path d="M451.240791 530.640176h-45.010989v-11.252747h45.010989z" fill="#FFFFFF" p-id="9598"></path><path d="M378.097934 530.640176h-11.252747v-11.252747h11.252747z" fill="#FFFFFF" p-id="9599"></path><path d="M338.713319 530.640176h-39.384616v-11.252747h39.384616z" fill="#FFFFFF" p-id="9600"></path><path d="M269.94778 546.838505l-31.828395-31.828395 7.955692-7.955692 31.828396 31.828395z" fill="#FFFFFF" p-id="9601"></path><path d="M238.119385 538.882813l31.828395-31.828395 7.955693 7.955692-31.828396 31.828395z" fill="#FFFFFF" p-id="9602"></path><path d="M1098.273758 525.013802h-213.802198v-11.252747h213.802198z" fill="#FFFFFF" p-id="9603"></path><path d="M1120.779253 525.013802h-11.252748v-11.252747h11.252748z" fill="#FFFFFF" p-id="9604"></path><path d="M586.273758 333.717099h-151.912088v-11.252747h151.912088z" fill="#FFFFFF" p-id="9605"></path><path d="M423.108923 333.717099h-11.252747v-11.252747h11.252747z" fill="#FFFFFF" p-id="9606"></path><path d="M552.515516 688.178637h-213.802197v-11.252747h213.802197z" fill="#FFFFFF" p-id="9607"></path><path d="M940.735297 897.406593c-8.023209 0-12.214857-10.262505-16.64844-21.127033-4.79367-11.742242-9.756132-23.889582-20.007384-23.889582s-14.954901 11.995429-19.579781 23.597011c-4.394198 11.01644-8.540835 21.413978-16.912879 21.413978s-12.428659-10.30189-16.777846-21.211429c-4.664264-11.702857-9.486066-23.79956-19.962374-23.79956s-15.264352 12.136088-19.866725 23.872703c-4.264791 10.870154-8.298901 21.138286-16.530286 21.138286s-12.434286-10.341275-16.839736-21.295824c-4.692396-11.657846-9.564835-23.715165-19.799209-23.715165s-15.118066 12.085451-19.799208 23.771429c-4.371692 10.920791-8.507077 21.23956-16.715956 21.23956-8.568967 0-12.890022-11.52844-17.070418-22.679912-4.118505-10.982681-8.37767-22.336703-16.682198-22.336703s-12.670593 11.427165-16.879121 22.505494-8.529582 22.505495-16.907252 22.505495c-8.085099 0-12.378022-10.380659-16.941011-21.38022-4.816176-11.624088-9.795516-23.630769-19.692308-23.630769-9.193495 0-12.760615 10.279385-16.541539 21.160791-4.073495 11.725363-8.287648 23.855824-19.973626 23.855824-11.427165 0-15.264352-11.719736-18.977758-23.068132s-7.190505-21.942857-17.54866-21.942857c-11.14022 0-16.012659 12.434286-20.721934 24.469099-4.135385 10.56633-8.045714 20.547516-15.900132 20.547516-8.293275 0-14.831121-11.354022-21.149538-22.336703s-12.766242-22.190418-21.048264-22.657406v-371.34066a254.396484 254.396484 0 0 1 20.119912-99.643077 255.206681 255.206681 0 0 1 54.868396-81.374242 254.947868 254.947868 0 0 1 81.368615-54.857142A254.379604 254.379604 0 0 1 721.306725 225.054945a254.379604 254.379604 0 0 1 99.643077 20.119912 255.004132 255.004132 0 0 1 81.379868 54.857143 254.992879 254.992879 0 0 1 54.857143 81.374242 254.396484 254.396484 0 0 1 20.119912 99.648703v371.768264c-6.98233 2.166154-12.079824 12.344264-17.008527 22.184791-5.496967 11.010813-11.218989 22.398593-19.562901 22.398593z" fill="#3079ED" p-id="9608"></path><path d="M795.816791 422.141187l71.612484 71.612483L843.556571 517.626374l-71.612483-71.612484z" fill="#FFFFFF" p-id="9609"></path><path d="M867.429275 446.01389L795.816791 517.626374l-23.872703-23.872704L843.562198 422.146813z" fill="#FFFFFF" p-id="9610"></path><path d="M599.056879 422.141187l71.612484 71.612483L646.796659 517.626374 575.184176 446.01389z" fill="#FFFFFF" p-id="9611"></path><path d="M670.669363 446.01389L599.056879 517.626374l-23.872703-23.872704 71.612483-71.612483z" fill="#FFFFFF" p-id="9612"></path><path d="M721.306725 675.164835v-33.758242h-95.47956a5.716396 5.716396 0 0 1-5.800791-5.626373 5.716396 5.716396 0 0 1 5.800791-5.626374h185.344a5.705143 5.705143 0 0 1 5.789538 5.626374 5.705143 5.705143 0 0 1-5.789538 5.626373h-22.347956v33.758242a33.803253 33.803253 0 0 1-33.758242 33.758242 33.803253 33.803253 0 0 1-33.758242-33.758242z m11.252748 0a22.505495 22.505495 0 0 0 22.505494 22.505495 22.505495 22.505495 0 0 0 22.505495-22.505495v-33.758242h-16.879121v28.131869a5.626374 5.626374 0 0 1-5.626374 5.626373 5.626374 5.626374 0 0 1-5.626374-5.626373v-28.131869h-16.87912z" fill="#FFFFFF" p-id="9613"></path><path d="M561.033846 574.087033l-197.165011-183.926154-29.178373 69.052484L168.05978 277.346462 56.466286 488.892484 397.109451 621.826813l3.927208-134.830417z" fill="#FFE431" p-id="9614"></path><path d="M142.155956 452.107253A36.67833 36.67833 0 0 1 123.78022 428.780308a39.54778 39.54778 0 0 1 5.12-30.179868 42.377846 42.377846 0 0 1 24.474725-20.761319 37.477275 37.477275 0 0 1 30.624352 4.354813 35.761231 35.761231 0 0 1 18.10567 23.208791 40.718066 40.718066 0 0 1-5.558857 30.399297 41.702681 41.702681 0 0 1-24.322813 20.536264 37.055297 37.055297 0 0 1-30.072967-4.231033z m33.769495-56.95578a17.863736 17.863736 0 0 0-16.350242-1.35033 29.206505 29.206505 0 0 0-14.043429 13.328879 28.694505 28.694505 0 0 0-4.501099 18.786462 17.604923 17.604923 0 0 0 9.075341 13.081318 17.779341 17.779341 0 0 0 15.922637 1.547253 28.356923 28.356923 0 0 0 13.852132-13.221978 30.731253 30.731253 0 0 0 5.007473-19.12967 17.01978 17.01978 0 0 0-8.974066-13.041934z m27.248527 91.901186a24.193407 24.193407 0 0 1-12.152967-14.330373 22.865582 22.865582 0 0 1 2.981978-18.049407 22.871209 22.871209 0 0 1 14.527297-11.787253 25.245538 25.245538 0 0 1 18.814593 3.544616 23.906462 23.906462 0 0 1 12.068572 14.285362 22.421099 22.421099 0 0 1-2.830066 17.627429 23.79956 23.79956 0 0 1-14.549803 12.051692 24.463473 24.463473 0 0 1-18.859604-3.342066z m18.595165-31.496439a9.266637 9.266637 0 0 0-8.310154-0.90022 14.926769 14.926769 0 0 0-7.145494 6.92044q-6.47033 11.207736 2.588131 16.434637 8.636484 4.990593 15.29811-6.543473 6.284659-10.87578-2.430593-15.911384z m25.853187 49.815912l-0.157539-0.090022-12.968791 22.460483-12.02356-6.942945 32.858022-56.910769 12.02356 6.942945-3.375824 5.845802 0.151912 0.090022a16.316484 16.316484 0 0 1 16.457143 0.405099 16.271473 16.271473 0 0 1 8.681494 11.967297 25.543736 25.543736 0 0 1-4.028483 16.519033 27.693011 27.693011 0 0 1-13.846506 12.86189 18.128176 18.128176 0 0 1-16.215209-1.445978 14.015297 14.015297 0 0 1-7.556219-11.702857z m8.88967-16.187077l-1.80044 3.122637a11.460923 11.460923 0 0 0-1.671033 7.82066 8.011956 8.011956 0 0 0 4.135385 5.75578 8.51833 8.51833 0 0 0 8.214506 0.506373 17.723077 17.723077 0 0 0 7.454945-7.702505q5.907692-10.228747-2.081759-14.842374a8.670242 8.670242 0 0 0-7.640615-0.708923 12.884396 12.884396 0 0 0-6.610989 6.048352z m22.702418 39.09767l5.626373-9.744879a29.57222 29.57222 0 0 0 4.382945 6.076484 22.663033 22.663033 0 0 0 5.069363 4.107252 13.812747 13.812747 0 0 0 5.553231 2.025495 3.268923 3.268923 0 0 0 3.38145-1.592264 2.846945 2.846945 0 0 0 0.26444-2.391209 9.002198 9.002198 0 0 0-1.384088-2.571252 28.182505 28.182505 0 0 0-2.289934-2.695033q-1.294066-1.355956-2.413714-2.756923a33.268747 33.268747 0 0 1-3.004484-4.253539 13.655209 13.655209 0 0 1-1.614769-4.050989 10.62822 10.62822 0 0 1-0.033758-4.152264 14.206593 14.206593 0 0 1 1.766681-4.512351 12.333011 12.333011 0 0 1 4.658637-4.771165 13.463912 13.463912 0 0 1 6.031473-1.716044 20.086154 20.086154 0 0 1 6.71789 0.933978 32.773626 32.773626 0 0 1 6.813538 2.981978 40.853099 40.853099 0 0 1 5.024352 3.432088 45.275429 45.275429 0 0 1 4.585494 4.191648l-5.361934 9.283517a21.942857 21.942857 0 0 0-3.719033-4.804923 23.827692 23.827692 0 0 0-4.737406-3.623385 13.098198 13.098198 0 0 0-2.346198-1.080264 8.467692 8.467692 0 0 0-2.199912-0.45011 3.938462 3.938462 0 0 0-1.851077 0.298198 2.734418 2.734418 0 0 0-1.282813 1.16466 3.043868 3.043868 0 0 0-0.365714 2.222417 6.869802 6.869802 0 0 0 1.029626 2.346198 20.395604 20.395604 0 0 0 1.873582 2.379956q1.091516 1.220923 2.166154 2.447473a40.290462 40.290462 0 0 1 3.285802 4.332307 16.023912 16.023912 0 0 1 1.991737 4.253539 10.532571 10.532571 0 0 1 0.331956 4.354813 12.811253 12.811253 0 0 1-1.721671 4.692395 12.839385 12.839385 0 0 1-4.923077 5.046858 13.902769 13.902769 0 0 1-6.301538 1.687912 20.93011 20.93011 0 0 1-7.049846-1.069011 36.796484 36.796484 0 0 1-7.201758-3.145143 40.222945 40.222945 0 0 1-10.752-8.878418z m111.796044-16.412132l-28.885803 45.191033-7.876923-4.54611 24.621011-47.655384z m-42.856088 47.227781l11.072703 6.397186-6.065231 10.510066-11.072703-6.39156z" fill="#FFFFFF" p-id="9615"></path></svg>